<?xml version="1.0" encoding="UTF-8" standalone="no"?>
<!-- Created with Inkscape (http://www.inkscape.org/) -->

<svg
   width="1920"
   height="1200"
   viewBox="0 0 1920 1200"
   version="1.1"
   id="svg8"
   inkscape:version="1.3.2 (091e20ef0f, 2023-11-25)"
   sodipodi:docname="tablet_start_portrait.svg"
   xmlns:inkscape="http://www.inkscape.org/namespaces/inkscape"
   xmlns:sodipodi="http://sodipodi.sourceforge.net/DTD/sodipodi-0.dtd"
   xmlns="http://www.w3.org/2000/svg"
   xmlns:svg="http://www.w3.org/2000/svg"
   xmlns:rdf="http://www.w3.org/1999/02/22-rdf-syntax-ns#"
   xmlns:cc="http://creativecommons.org/ns#"
   xmlns:dc="http://purl.org/dc/elements/1.1/">
  <defs
     id="defs2">
    <rect
       x="857.14287"
       y="808.57144"
       width="360"
       height="60.000004"
       id="rect1" />
    <filter
       inkscape:collect="always"
       id="filter4133"
       x="-0.12652192"
       width="1.2530438"
       y="-0.1141175"
       height="1.228235">
      <feGaussianBlur
         inkscape:collect="always"
         stdDeviation="63.121445"
         id="feGaussianBlur4135" />
    </filter>
  </defs>
  <sodipodi:namedview
     id="base"
     pagecolor="#ffffff"
     bordercolor="#666666"
     borderopacity="1.0"
     inkscape:pageopacity="0.0"
     inkscape:pageshadow="2"
     inkscape:zoom="0.35"
     inkscape:cx="1094.2857"
     inkscape:cy="617.14287"
     inkscape:document-units="px"
     inkscape:current-layer="g1"
     showgrid="false"
     units="px"
     inkscape:pagecheckerboard="true"
     showguides="true"
     inkscape:guide-bbox="true"
     inkscape:window-width="1680"
     inkscape:window-height="986"
     inkscape:window-x="1680"
     inkscape:window-y="36"
     inkscape:window-maximized="1"
     inkscape:showpageshadow="2"
     inkscape:deskcolor="#d1d1d1">
    <sodipodi:guide
       position="0,0"
       orientation="1,0"
       id="guide815"
       inkscape:locked="false"
       inkscape:label=""
       inkscape:color="rgb(0,0,255)" />
    <sodipodi:guide
       position="1200,1920"
       orientation="1,0"
       id="guide817"
       inkscape:locked="false"
       inkscape:label=""
       inkscape:color="rgb(0,0,255)" />
    <sodipodi:guide
       position="1200,1920"
       orientation="0,1"
       id="guide819"
       inkscape:locked="false" />
    <sodipodi:guide
       position="0,0"
       orientation="0,1"
       id="guide821"
       inkscape:locked="false" />
    <sodipodi:guide
       position="1095.0054,1861.7111"
       orientation="0,1"
       id="guide923"
       inkscape:locked="false" />
    <sodipodi:guide
       position="980,97.142857"
       orientation="0,1"
       id="guide927"
       inkscape:locked="false" />
    <sodipodi:guide
       position="600,897.015"
       orientation="1,0"
       id="guide1602"
       inkscape:locked="false"
       inkscape:label=""
       inkscape:color="rgb(0,0,255)" />
    <sodipodi:guide
       position="300,-71.428571"
       orientation="1,0"
       id="guide1614"
       inkscape:locked="false"
       inkscape:label=""
       inkscape:color="rgb(0,0,255)" />
    <sodipodi:guide
       position="900,218.57143"
       orientation="1,0"
       id="guide1616"
       inkscape:locked="false"
       inkscape:label=""
       inkscape:color="rgb(0,0,255)" />
    <sodipodi:guide
       position="1200,257.14286"
       orientation="0,1"
       id="guide1640"
       inkscape:locked="false" />
  </sodipodi:namedview>
  <metadata
     id="metadata5">
    <rdf:RDF>
      <cc:Work
         rdf:about="">
        <dc:format>image/svg+xml</dc:format>
        <dc:type
           rdf:resource="http://purl.org/dc/dcmitype/StillImage" />
      </cc:Work>
    </rdf:RDF>
  </metadata>
  <g
     inkscape:label="Ebene 1"
     inkscape:groupmode="layer"
     id="layer1"
     transform="translate(0,211.00001)">
    <g
       id="g1"
       inkscape:label="icon"
       transform="matrix(14.663323,0,0,14.663323,-820.18386,2646.2548)">
      <g
         id="g4104"
         style="opacity:0.5;fill:#ffffff;fill-opacity:1;stroke:none;filter:url(#filter4133)"
         transform="matrix(0.022214,0,0,-0.022214,50.319047,-118.30253)">
        <path
           d="m 3190.2125,2573.3558 c -11.3248,-27.1109 -28.1404,-313.6625 -22.6495,-379.5523 5.8339,-67.9487 28.4835,-133.8384 64.5169,-187.7169 21.2769,-31.9154 74.8123,-85.1076 109.4731,-108.7868 l 27.7972,-19.2178 -27.7972,28.1404 c -44.6129,44.2696 -64.1739,84.7644 -71.7237,149.2814 -4.4613,39.4652 -1.0295,78.244 12.0111,125.6022 17.502,65.2034 3.0886,188.7467 -35.6902,307.1422 -14.4135,43.9265 -28.4836,74.4691 -40.4948,88.5393 -8.5793,9.952 -10.2952,9.6089 -15.4429,-3.4317 z"
           id="path3322"
           style="fill:#ffffff;fill-opacity:1"
           inkscape:connector-curvature="0" />
        <path
           d="m 3167.563,2117.2754 c 0,-14.7566 -10.2953,-48.7309 -22.3065,-74.4691 -19.5609,-41.5243 -44.956,-70.0078 -89.2256,-100.2073 -25.0518,-17.1588 -49.0741,-27.7972 -100.2073,-44.2696 -47.015,-15.0997 -73.0964,-28.8268 -117.0228,-61.0853 -52.5059,-38.7788 -129.7205,-112.9048 -162.6653,-156.8312 -32.9448,-43.9265 -38.0925,-63.4875 -15.4429,-59.0262 25.0518,4.8044 281.7472,133.8384 329.7918,165.7538 86.4802,57.3103 144.1337,138.9861 166.7833,235.7616 7.2067,30.5426 15.4429,97.8051 12.3543,100.8936 -1.0295,1.0295 -2.059,-2.059 -2.059,-6.5203 z"
           id="path3324"
           style="fill:#ffffff;fill-opacity:1"
           inkscape:connector-curvature="0" />
        <path
           d="m 3229.3345,1883.9159 c -45.6423,-3.0885 -106.3844,-20.5905 -144.1337,-41.181 -10.2953,-5.8339 -15.7861,-9.2657 -12.0112,-7.893 47.0151,16.1292 98.1483,19.2178 141.0452,8.2362 54.565,-14.0701 95.4028,-38.4357 152.37,-91.6279 27.7972,-25.7381 41.5243,-35.0039 76.8713,-52.1627 69.6647,-33.9744 180.8536,-67.6056 250.175,-76.185 56.9672,-7.2066 71.3805,2.0591 42.8969,25.7382 -43.24,36.0335 -259.4406,175.7059 -306.4557,198.0124 -61.7717,29.513 -130.0635,42.2105 -200.7578,37.0628 z"
           id="path3326"
           style="fill:#ffffff;fill-opacity:1"
           inkscape:connector-curvature="0" />
        <path
           d="m 2602.0096,1361.946 1.0295,-103.9823 h 20.5906 20.5905 v 102.9527 102.9527 l -21.6201,1.0295 -21.2769,1.0295 z"
           id="path3328"
           inkscape:connector-curvature="0"
           style="fill:#ffffff;fill-opacity:1" />
        <path
           d="m 2735.5049,1459.4078 c -6.5203,-3.0886 -16.4724,-11.668 -22.3064,-18.8747 l -10.6385,-13.3838 -1.0295,-55.5945 c -1.7159,-75.4986 3.775,-93.3437 33.9744,-108.4434 12.3543,-6.5204 20.5905,-6.8635 143.7906,-6.8635 h 130.4067 v 20.5905 20.5905 h -126.6318 c -110.8457,0 -127.6613,0.6864 -132.1226,5.4908 -7.893,7.8931 -7.893,108.1004 0,115.9934 4.4613,4.8045 21.2769,5.4908 132.1226,5.4908 h 126.6318 v 20.5905 20.5906 h -131.0931 c -118.3956,0 -132.4657,-0.6864 -143.1042,-6.1772 z"
           id="path3330"
           inkscape:connector-curvature="0"
           style="fill:#ffffff;fill-opacity:1" />
        <path
           d="m 3100.3005,1459.0646 c -6.1771,-3.7749 -15.4429,-12.3543 -20.5905,-19.561 -9.9521,-12.6975 -9.9521,-13.727 -10.9816,-65.8897 -1.7159,-67.2624 0.3432,-79.9599 14.0702,-95.746 18.8746,-21.2769 20.2473,-21.62 152.3699,-21.62 117.3661,0 119.7683,0.3431 132.809,7.893 8.5794,4.8044 16.4724,13.3838 21.6201,22.6496 7.2066,14.0702 7.893,18.8746 7.893,74.1259 0,55.2513 -0.6864,60.0558 -7.893,74.1259 -5.1477,9.2658 -13.0407,17.8451 -21.6201,22.6496 -13.0407,7.5499 -15.4429,7.8931 -135.2112,7.8931 -113.9343,0 -122.5136,-0.3432 -132.4658,-6.5204 z m 249.1455,-41.5243 c 6.1771,-6.1771 6.8635,-11.3247 6.8635,-56.6239 0,-45.2992 -0.6864,-50.4468 -6.8635,-56.624 -6.5203,-6.5203 -11.3248,-6.8635 -115.6501,-6.8635 -85.4508,0.3432 -110.5026,1.3727 -114.9639,4.8045 -5.4908,4.1181 -6.1771,11.3248 -6.1771,59.7126 0,49.0741 0.6863,55.5943 6.1771,58.683 3.4318,2.4022 47.3582,3.7749 114.9639,3.7749 104.3253,0 109.1298,-0.3432 115.6501,-6.8636 z"
           id="path3332"
           inkscape:connector-curvature="0"
           style="fill:#ffffff;fill-opacity:1" />
        <path
           d="m 3459.2622,1365.3777 c 0,-55.2513 1.3727,-102.6095 3.0886,-105.0117 1.7159,-3.0886 8.5794,-4.1181 21.2768,-3.4318 l 18.5315,1.0295 1.0296,83.3917 0.6863,83.0485 h 119.7683 c 111.1889,0 119.7683,-0.3432 124.9159,-6.1772 5.1477,-5.4908 5.834,-16.4724 5.834,-84.078 v -77.9008 h 20.5906 c 18.8746,0 20.5905,0.6863 22.6495,8.5793 1.0296,4.4613 1.3727,41.8675 0.6864,83.0485 -1.3727,83.7349 -2.7454,88.8825 -25.7382,106.3845 l -12.3544,9.6089 -150.654,1.0295 -150.3109,1.0295 z"
           id="path3334"
           inkscape:connector-curvature="0"
           style="fill:#ffffff;fill-opacity:1" />
      </g>
      <path
         d="m 121.18643,-175.46706 c -0.25157,0.60225 -0.62511,6.9677 -0.50314,8.43138 0.1296,1.50941 0.63273,2.97309 1.43318,4.16994 0.47264,0.70897 1.66188,1.89058 2.43184,2.41659 l 0.61748,0.42691 -0.61748,-0.62511 c -0.99104,-0.98341 -1.42556,-1.88296 -1.59327,-3.31614 -0.0991,-0.87668 -0.0229,-1.73811 0.26681,-2.79013 0.38879,-1.44843 0.0686,-4.19282 -0.79282,-6.82286 -0.32018,-0.97578 -0.63274,-1.65425 -0.89955,-1.96681 -0.19058,-0.22107 -0.2287,-0.21345 -0.34305,0.0762 z"
         id="path8"
         style="fill:#ff0000;fill-opacity:1;stroke:none;stroke-width:0.022214"
         inkscape:connector-curvature="0" />
      <path
         d="m 120.68329,-165.33569 c 0,0.32781 -0.2287,1.08251 -0.49552,1.65426 -0.43452,0.92242 -0.99865,1.55515 -1.98205,2.22601 -0.5565,0.38116 -1.09013,0.61748 -2.22601,0.9834 -1.04439,0.33543 -1.62376,0.64036 -2.59954,1.35695 -1.16637,0.86143 -2.88161,2.50807 -3.61345,3.48385 -0.73183,0.97578 -0.84619,1.41031 -0.34305,1.31121 0.5565,-0.10673 6.25873,-2.97309 7.326,-3.68206 1.92107,-1.27309 3.20178,-3.08744 3.70492,-5.23721 0.16009,-0.67847 0.34305,-2.17264 0.27444,-2.24125 -0.0229,-0.0229 -0.0457,0.0457 -0.0457,0.14484 z"
         id="path10"
         style="fill:#ff0000;fill-opacity:1;stroke:none;stroke-width:0.022214"
         inkscape:connector-curvature="0" />
      <path
         d="m 122.05548,-160.15184 c -1.01389,0.0686 -2.36322,0.4574 -3.20178,0.9148 -0.2287,0.12959 -0.35067,0.20583 -0.26682,0.17533 1.04439,-0.35829 2.18027,-0.4269 3.13318,-0.18296 1.21211,0.31256 2.11928,0.85381 3.38475,2.03543 0.61748,0.57174 0.92242,0.77757 1.70762,1.15874 1.54753,0.7547 4.01748,1.50179 5.55738,1.69237 1.26547,0.16009 1.58565,-0.0457 0.95291,-0.57175 -0.96053,-0.80045 -5.76321,-3.90313 -6.8076,-4.39864 -1.3722,-0.65561 -2.88923,-0.93767 -4.45964,-0.82332 z"
         id="path12"
         style="fill:#ff0000;fill-opacity:1;stroke:none;stroke-width:0.022214"
         inkscape:connector-curvature="0" />
      <path
         d="m 108.12009,-148.5568 0.0229,2.30986 h 0.4574 0.45739 v -2.28699 -2.28699 l -0.48026,-0.0229 -0.47265,-0.0229 z"
         id="path14"
         inkscape:connector-curvature="0"
         style="fill:#ffffff;fill-opacity:1;stroke:none;stroke-width:0.022214" />
      <path
         d="m 111.08555,-150.72181 c -0.14484,0.0686 -0.36592,0.25919 -0.49551,0.41928 l -0.23633,0.29731 -0.0229,1.23497 c -0.0381,1.67713 0.0838,2.07354 0.7547,2.40896 0.27444,0.14485 0.4574,0.15247 3.19417,0.15247 h 2.89685 v -0.4574 -0.4574 h -2.813 c -2.46232,0 -2.83587,-0.0152 -2.93497,-0.12197 -0.17533,-0.17534 -0.17533,-2.40134 0,-2.57668 0.0991,-0.10672 0.47265,-0.12197 2.93497,-0.12197 h 2.813 v -0.4574 -0.4574 h -2.9121 c -2.63004,0 -2.94259,0.0152 -3.17892,0.13723 z"
         id="path16"
         inkscape:connector-curvature="0"
         style="fill:#ffffff;fill-opacity:1;stroke:none;stroke-width:0.022214" />
      <path
         d="m 119.18912,-150.71419 c -0.13722,0.0839 -0.34305,0.27444 -0.4574,0.43453 -0.22107,0.28206 -0.22107,0.30493 -0.24394,1.46367 -0.0381,1.49417 0.008,1.77623 0.31256,2.1269 0.41928,0.47265 0.44977,0.48027 3.38474,0.48027 2.60717,0 2.66053,-0.008 2.95022,-0.17534 0.19058,-0.10672 0.36592,-0.2973 0.48027,-0.50313 0.16009,-0.31256 0.17533,-0.41928 0.17533,-1.64664 0,-1.22735 -0.0152,-1.33408 -0.17533,-1.64663 -0.11435,-0.20583 -0.28969,-0.39641 -0.48027,-0.50314 -0.28969,-0.16771 -0.34305,-0.17534 -3.00358,-0.17534 -2.53094,0 -2.72152,0.008 -2.9426,0.14485 z m 5.53452,0.92242 c 0.13722,0.13722 0.15247,0.25157 0.15247,1.25784 0,1.00628 -0.0152,1.12063 -0.15247,1.25785 -0.14484,0.14484 -0.25157,0.15246 -2.56905,0.15246 -1.8982,-0.008 -2.45471,-0.0305 -2.55381,-0.10672 -0.12197,-0.0915 -0.13722,-0.25157 -0.13722,-1.32646 0,-1.09013 0.0152,-1.23497 0.13722,-1.30358 0.0762,-0.0534 1.05202,-0.0839 2.55381,-0.0839 2.31748,0 2.42421,0.008 2.56905,0.15247 z"
         id="path18"
         inkscape:connector-curvature="0"
         style="fill:#ffffff;fill-opacity:1;stroke:none;stroke-width:0.022214" />
      <path
         d="m 127.1631,-148.63303 c 0,1.22735 0.0305,2.27937 0.0686,2.33273 0.0381,0.0686 0.19058,0.0915 0.47264,0.0762 l 0.41166,-0.0229 0.0229,-1.85246 0.0153,-1.84484 h 2.66053 c 2.46995,0 2.66053,0.008 2.77488,0.13722 0.11435,0.12197 0.1296,0.36592 0.1296,1.86771 v 1.73049 h 0.4574 c 0.41928,0 0.45739,-0.0153 0.50313,-0.19058 0.0229,-0.0991 0.0305,-0.93005 0.0153,-1.84484 -0.0305,-1.86009 -0.061,-1.97444 -0.57175,-2.36323 l -0.27444,-0.21345 -3.34663,-0.0229 -3.339,-0.0229 z"
         id="path20"
         inkscape:connector-curvature="0"
         style="fill:#ffffff;fill-opacity:1;stroke:none;stroke-width:0.022214" />
    </g>
    <g
       style="fill:#4477bb"
       id="g1019"
       transform="matrix(0.23939598,0,0,0.23939598,1426.0047,583.25591)">
      <g
         id="g836">
        <path
           inkscape:connector-curvature="0"
           d="m 463.27148,392.91797 v 37.0918 h 37.09375 v -37.0918 z m 37.09375,37.0918 v 37.09375 h 37.0918 v -37.09375 z m 37.0918,0 h 37.0918 v -37.0918 h -37.0918 z m 0,37.09375 v 37.09179 h 37.0918 v -37.09179 z m 0,37.09179 h -37.0918 v 37.0918 h 37.0918 z m 0,37.0918 v 37.09375 h 37.0918 v -37.09375 z m 0,37.09375 h -37.0918 v 37.0918 h 37.0918 z m 0,37.0918 v 37.09375 h 37.0918 v -37.09375 z m 0,37.09375 h -37.0918 v 37.09179 h 37.0918 z m -37.0918,0 v -37.09375 h -37.09375 v 37.09375 z m 0,-74.18555 v -37.09375 h -37.09375 v 37.09375 z m 0,-74.18555 v -37.09179 h -37.09375 v 37.09179 z"
           style="color:#000000;font-style:normal;font-variant:normal;font-weight:normal;font-stretch:normal;font-size:medium;line-height:normal;font-family:sans-serif;font-variant-ligatures:normal;font-variant-position:normal;font-variant-caps:normal;font-variant-numeric:normal;font-variant-alternates:normal;font-feature-settings:normal;text-indent:0;text-align:start;text-decoration:none;text-decoration-line:none;text-decoration-style:solid;text-decoration-color:#000000;letter-spacing:normal;word-spacing:normal;text-transform:none;writing-mode:lr-tb;direction:ltr;text-orientation:mixed;dominant-baseline:auto;baseline-shift:baseline;text-anchor:start;white-space:normal;shape-padding:0;clip-rule:nonzero;display:inline;overflow:visible;visibility:visible;opacity:1;isolation:auto;mix-blend-mode:normal;color-interpolation:sRGB;color-interpolation-filters:linearRGB;solid-color:#000000;solid-opacity:1;vector-effect:none;fill:#ffff44;fill-opacity:1;fill-rule:nonzero;stroke:none;stroke-width:37.0917;stroke-linecap:butt;stroke-linejoin:miter;stroke-miterlimit:4;stroke-dasharray:37.0917;stroke-dashoffset:0;stroke-opacity:1;color-rendering:auto;image-rendering:auto;shape-rendering:auto;text-rendering:auto;enable-background:accumulate"
           transform="matrix(1.6176144,0,0,1.6176144,-739.40231,-625.59423)"
           id="path1011" />
        <path
           inkscape:connector-curvature="0"
           d="m 611.02539,430.01172 c -0.57793,0 -1.13491,0.0879 -1.6582,0.25 -0.52329,0.16208 -1.01318,0.39985 -1.45703,0.69922 -0.8877,0.59873 -1.59248,1.44618 -2.01368,2.44531 -0.21059,0.49956 -0.34946,1.03714 -0.40625,1.59961 -0.0189,0.18749 -0.0293,0.37767 -0.0293,0.57031 v 28.4375 182.98438 c 0,3.08231 2.48213,5.56445 5.56445,5.56445 h 38.32813 c 3.08231,0 5.5625,-2.48214 5.5625,-5.56445 v -99.5293 h 74.80273 c 3.08232,0 5.5625,-2.48018 5.5625,-5.5625 v -25.96484 c 0,-3.08232 -2.48018,-5.56446 -5.5625,-5.56446 h -74.80273 v -40.80078 h 80.98437 c 3.08232,0 5.5625,-2.48018 5.5625,-5.5625 v -28.4375 c 0,-3.08231 -2.48018,-5.56445 -5.5625,-5.56445 h -86.54687 z"
           style="fill:#4477bb;fill-opacity:1;stroke-width:0.618194"
           transform="matrix(1.6176144,0,0,1.6176144,-739.40231,-625.59419)"
           id="rect1017" />
      </g>
    </g>
    <text
       xml:space="preserve"
       transform="translate(205.71429,-153.85715)"
       id="text1"
       style="font-weight:bold;font-size:20px;line-height:0.85;font-family:'Courier Prime';-inkscape-font-specification:'Courier Prime Bold';text-align:center;white-space:pre;shape-inside:url(#rect1);fill:#ffffff"><tspan
         x="897.17474"
         y="842.89872"
         id="tspan3"><tspan
           style="font-size:48px;font-family:Comfortaa;-inkscape-font-specification:'Comfortaa, Bold'"
           id="tspan2">Powered by</tspan></tspan></text>
  </g>
</svg>
