<svg xmlns="http://www.w3.org/2000/svg" xmlns:xlink="http://www.w3.org/1999/xlink" width="112" height="28"><defs><polygon id="a" points="1.79375122e-05 0.0608951049 31.6837739 0.0608951049 31.6837739 27.8041561 1.79375122e-05 27.8041561"/><polygon id="c" points="0 27.9391049 111.951583 27.9391049 111.951583 0.195804196 0 0.195804196"/></defs><g fill="none" fill-rule="evenodd"><g transform="translate(0 .135)"><mask id="b" fill="#fff"><use xlink:href="#a"/></mask><path fill="#E72412" d="M30.984 26.748a181.023 181.023 0 0 0-6.708-4.495c-5.451-3.534-10.136-2.116-13.56.133 3.093-1.916 6.677-1.702 9.99 1.758 1.27 1.326 4.715 2.604 7.402 3.242 2.564.61 4.742.674 2.876-.638M14.986 12.034c.101 3.654-1.874 6.673-6.505 7.832-1.777.446-4.599 2.811-6.49 4.836-1.807 1.932-2.952 3.797-.89 2.826 3.884-1.826 7.22-3.602 7.22-3.602 5.765-2.988 6.888-7.781 6.665-11.892m6.768 8.9c-3.193-1.74-4.802-4.972-3.483-9.59.506-1.773-.118-5.416-.913-8.078-.758-2.541-1.79-4.474-1.986-2.188-.372 4.3-.512 8.095-.512 8.095-.314 6.522 3.247 9.899 6.894 11.76" mask="url(#b)"/></g><path fill="#FFF" d="M43.75 11.575v5.548c0 1.341.72 2.57 1.88 3.21a3.59 3.59 0 0 0 1.729.444h15.16v-2.551H47.355c-.281 0-.56-.119-.765-.326a1.095 1.095 0 0 1-.328-.777v-5.548c0-.29.116-.566.328-.778.205-.207.485-.325.768-.325h15.16v-2.55h-15.16c-.604 0-1.202.153-1.728.444a3.657 3.657 0 0 0-1.882 3.209"/><path fill="#FFF" d="M84.351 17.123c0 .292-.116.568-.328.778a1.089 1.089 0 0 1-.767.325H70.498c-.283 0-.554-.116-.764-.325a1.095 1.095 0 0 1-.327-.778v-5.548c0-.29.116-.566.326-.778.212-.21.484-.325.768-.325h12.757c.28 0 .56.118.766.325.211.211.327.487.327.778v5.548zm1.666 2.351a3.68 3.68 0 0 0 .849-2.35v-5.55a3.674 3.674 0 0 0-1.882-3.208 3.574 3.574 0 0 0-1.728-.445H70.501a3.568 3.568 0 0 0-2.76 1.304c-.547.656-.781 1.49-.78 2.35v5.548c-.001.86.233 1.694.78 2.35l.094.113.052.053a3.575 3.575 0 0 0 2.615 1.138h12.754a3.573 3.573 0 0 0 2.616-1.137l.145-.166z"/><mask id="d" fill="#fff"><use xlink:href="#c"/></mask><polygon fill="#FFF" points="36.8596667 20.7763916 39.37325 20.7763916 39.37325 7.92125874 36.8596667 7.92125874" mask="url(#d)"/><path fill="#FFF" d="M109.11 10.796c.212.215.328.49.328.779v9.201h2.514v-9.201c0-.857-.302-1.691-.849-2.35l-.147-.166a3.562 3.562 0 0 0-2.613-1.137h-16.82v12.854h2.514V10.472h14.308c.278 0 .558.118.766.324" mask="url(#d)"/></g></svg>